<svg width="20" height="20" viewBox="0 0 20 20" fill="none" xmlns="http://www.w3.org/2000/svg">
<g id="ship_icon" clip-path="url(#clip0_356_93)">
<path id="Vector" d="M2.44723 16.2979L0.764979 10.4674C0.68834 10.2222 0.699567 9.96572 0.798658 9.69796C0.89775 9.4302 1.1107 9.23181 1.43751 9.10278L2.47899 8.72746V4.70501C2.47899 4.12314 2.68576 3.63202 3.0993 3.23164C3.51285 2.83125 4.01756 2.63106 4.61342 2.63106H6.97732V1.22276C6.97732 0.886543 7.09995 0.598697 7.34519 0.359219C7.59043 0.11974 7.88521 0 8.22951 0H11.8139C12.1582 0 12.4529 0.11974 12.6982 0.359219C12.9434 0.598697 13.0661 0.886543 13.0661 1.22276V2.63106H15.4247C16.0241 2.63106 16.5305 2.83125 16.9441 3.23164C17.3576 3.63202 17.5644 4.12314 17.5644 4.70501V8.72746L18.5669 9.06991C18.9168 9.1886 19.1336 9.3938 19.2173 9.68551C19.301 9.97723 19.3085 10.2498 19.2398 10.5032L17.5909 16.2979C16.91 16.3233 16.2813 16.2286 15.7046 16.0139C15.128 15.7993 14.6226 15.526 14.1886 15.194C14.0201 15.039 13.828 14.9596 13.6123 14.9558C13.3966 14.9521 13.2054 15.0282 13.0385 15.1843C12.6139 15.5179 12.1455 15.7869 11.6334 15.9913C11.1213 16.1957 10.5805 16.2979 10.0109 16.2979C9.86553 16.2979 9.72581 16.2917 9.59177 16.2794C9.45771 16.2671 9.32366 16.2468 9.18962 16.2187C8.75769 16.1378 8.34735 15.9988 7.95861 15.8017C7.56986 15.6046 7.21231 15.3699 6.88595 15.0978C6.7506 14.9815 6.5953 14.919 6.42004 14.91C6.24477 14.9011 6.09144 14.9559 5.96005 15.0745C5.49493 15.4711 4.94984 15.7805 4.3248 16.0027C3.69974 16.2249 3.07389 16.3233 2.44723 16.2979ZM10.0241 20C9.41015 20 8.79993 19.928 8.19344 19.7839C7.58697 19.6399 6.99922 19.4238 6.43017 19.1357C5.86113 19.4238 5.27711 19.6399 4.67812 19.7839C4.07915 19.928 3.45968 20 2.81972 20H2.02392C1.71451 20 1.45356 19.8963 1.24105 19.689C1.02854 19.4816 0.92229 19.227 0.92229 18.9252C0.92229 18.6233 1.02854 18.3684 1.24105 18.1605C1.45356 17.9525 1.71451 17.8485 2.02392 17.8485H2.80948C3.32227 17.8485 3.85351 17.7837 4.4032 17.6541C4.95289 17.5244 5.44725 17.3245 5.8863 17.0542C6.0499 16.9534 6.22991 16.9029 6.42632 16.9029C6.62272 16.9029 6.8003 16.9534 6.95905 17.0542C7.31663 17.2524 7.68456 17.4092 8.06284 17.5244C8.4411 17.6397 8.83418 17.7189 9.24207 17.7621C9.36649 17.7765 9.49478 17.7873 9.62693 17.7945C9.7591 17.8017 9.8898 17.8053 10.019 17.8053C10.5269 17.8053 11.0322 17.7486 11.5348 17.635C12.0374 17.5215 12.5173 17.3458 12.9746 17.1078C13.1799 16.9891 13.396 16.9289 13.6229 16.9271C13.8498 16.9254 14.0626 16.9856 14.2615 17.1078C14.7188 17.3458 15.1947 17.5287 15.6892 17.6567C16.1838 17.7846 16.6857 17.8485 17.1949 17.8485H17.9805C18.2899 17.8485 18.5509 17.9522 18.7634 18.1596C18.9759 18.3669 19.0821 18.6215 19.0821 18.9234C19.0821 19.2252 18.9759 19.4801 18.7634 19.6881C18.5509 19.896 18.2899 20 17.9805 20H17.1865C16.5454 20 15.9341 19.928 15.3526 19.7839C14.771 19.6399 14.1952 19.4238 13.625 19.1357C13.0548 19.4238 12.4659 19.6399 11.8582 19.7839C11.2505 19.928 10.6391 20 10.0241 20ZM4.67693 8.07074L9.22963 6.62109C9.47668 6.54562 9.73343 6.50789 9.99988 6.50789C10.2663 6.50789 10.5246 6.54562 10.7748 6.62109L15.3612 8.07074V4.78252H4.67693V8.07074Z" fill="#0070CC"/>
</g>
<defs>
<clipPath id="clip0_356_93">
<rect width="20" height="20" fill="white"/>
</clipPath>
</defs>
</svg>
