<svg width="24" height="24" viewBox="0 0 24 24" fill="none" xmlns="http://www.w3.org/2000/svg">
<g id="icon">
<path id="Vector" fill-rule="evenodd" clip-rule="evenodd" d="M0.678408 20.3391C1.13068 20.7797 2.19804 21 2.30947 21H21.6905C22.3256 21 22.8693 20.7797 23.3216 20.3391C23.7739 19.8984 24 19.3687 24 18.75V15.4292C23.9822 15.2271 23.9048 15.0497 23.7678 14.8973C23.6104 14.722 23.408 14.6124 23.1605 14.5686C22.6207 14.3933 22.1765 14.0755 21.8278 13.6154C21.4792 13.1552 21.3049 12.6402 21.3049 12.0704C21.3049 11.5007 21.4792 10.9857 21.8278 10.5255C22.1765 10.0654 22.6207 9.74762 23.1605 9.57231C23.408 9.52848 23.6104 9.41892 23.7678 9.24361C23.9048 9.09115 23.9822 8.91384 24 8.71166V5.25C24 4.63125 23.7739 4.10156 23.3216 3.66094C22.8693 3.22031 22.3256 3 21.6905 3H2.30947C2.19804 3 1.13068 3.22031 0.678408 3.66094C0.226136 4.10156 0 4.63125 0 5.25V8.74585C0.0232103 8.93388 0.0993925 9.0998 0.228546 9.24361C0.385995 9.41892 0.58843 9.52848 0.83585 9.57231C1.37568 9.74762 1.81991 10.0654 2.16854 10.5255C2.51718 10.9857 2.6915 11.5007 2.6915 12.0704C2.6915 12.6402 2.51718 13.1552 2.16854 13.6153C1.81991 14.0755 1.37568 14.3933 0.83585 14.5686C0.58843 14.6124 0.385995 14.722 0.228546 14.8973C0.0993925 15.0411 0.0232103 15.207 0 15.3951V18.75C0 19.3687 0.226136 19.8984 0.678408 20.3391ZM12.0096 14.5686L14.034 16.0806C14.2814 16.2778 14.5513 16.2833 14.8437 16.0971C15.1361 15.9108 15.2261 15.6643 15.1136 15.3575L14.3039 12.8593L16.5644 11.1501C16.8118 10.9529 16.8793 10.7063 16.7669 10.4105C16.6544 10.1147 16.4407 9.96675 16.1258 9.96675H13.4942L12.6507 7.43575C12.5382 7.12896 12.3245 6.97556 12.0096 6.97556C11.6948 6.97556 11.4811 7.12896 11.3686 7.43575L10.5251 9.96675H7.85974C7.54484 9.96675 7.33679 10.1147 7.23557 10.4105C7.13435 10.7063 7.20745 10.9529 7.45487 11.1501L9.64791 12.8593L8.83817 15.3903C8.72571 15.6971 8.80444 15.9437 9.07435 16.1299C9.34426 16.3162 9.61418 16.3107 9.88409 16.1135L12.0096 14.5686Z" fill="#F48F00"/>
</g>
</svg>
