<svg width="36" height="36" viewBox="0 0 36 36" fill="none" xmlns="http://www.w3.org/2000/svg">
<path d="M14.2065 27.1205C13.9262 27.1205 13.6525 27.0722 13.3853 26.9758C13.1181 26.8793 12.8768 26.7251 12.6613 26.5131L5.70699 19.874C5.28972 19.4691 5.08762 18.9675 5.10069 18.3691C5.11377 17.7707 5.32894 17.2721 5.74622 16.8732C6.16977 16.4683 6.69109 16.2658 7.3102 16.2658C7.92931 16.2658 8.44751 16.4683 8.86478 16.8732L14.2065 21.9797L27.2666 9.4857C27.6901 9.08677 28.2149 8.88582 28.8408 8.88285C29.4667 8.87985 29.9915 9.0808 30.415 9.4857C30.8385 9.89057 31.0503 10.3937 31.0503 10.9951C31.0503 11.5964 30.8385 12.0966 30.415 12.4955L15.7517 26.5131C15.5362 26.7251 15.2949 26.8793 15.0277 26.9758C14.7605 27.0722 14.4868 27.1205 14.2065 27.1205Z" fill="#0070CC"/>
</svg>
