<svg width="32" height="32" viewBox="0 0 32 32" fill="none" xmlns="http://www.w3.org/2000/svg">
<g id="pwd_visibility">
<path id="Vector" d="M15.9976 21.9989C17.6643 21.9989 19.0809 21.4156 20.2476 20.2489C21.4143 19.0822 21.9976 17.6656 21.9976 15.9989C21.9976 14.3322 21.4143 12.9156 20.2476 11.7489C19.0809 10.5822 17.6643 9.9989 15.9976 9.9989C14.3309 9.9989 12.9143 10.5822 11.7476 11.7489C10.5809 12.9156 9.9976 14.3322 9.9976 15.9989C9.9976 17.6656 10.5809 19.0822 11.7476 20.2489C12.9143 21.4156 14.3309 21.9989 15.9976 21.9989ZM16.0009 19.2032C15.1118 19.2032 14.3549 18.892 13.7302 18.2696C13.1056 17.6472 12.7933 16.8914 12.7933 16.0022C12.7933 15.1131 13.1045 14.3562 13.7269 13.7315C14.3493 13.1069 15.1051 12.7946 15.9943 12.7946C16.8834 12.7946 17.6403 13.1058 18.265 13.7282C18.8896 14.3506 19.2019 15.1064 19.2019 15.9956C19.2019 16.8847 18.8907 17.6416 18.2683 18.2663C17.6459 18.8909 16.8901 19.2032 16.0009 19.2032ZM15.9976 26.583C12.9445 26.583 10.1524 25.7704 7.6215 24.1453C5.09058 22.5202 3.10145 20.3588 1.6541 17.6612C1.5053 17.3984 1.39685 17.1269 1.32876 16.8467C1.26063 16.5665 1.22656 16.2839 1.22656 15.9989C1.22656 15.7139 1.26062 15.4313 1.32873 15.1511C1.39686 14.8709 1.50532 14.5994 1.6541 14.3366C3.10145 11.639 5.09058 9.47761 7.6215 7.85249C10.1524 6.22736 12.9445 5.41479 15.9976 5.41479C19.0507 5.41479 21.8428 6.22736 24.3737 7.85249C26.9046 9.47761 28.8937 11.639 30.3411 14.3366C30.4899 14.5994 30.5984 14.8709 30.6665 15.1511C30.7346 15.4313 30.7686 15.7139 30.7686 15.9989C30.7686 16.2839 30.7346 16.5665 30.6665 16.8467C30.5984 17.1269 30.4899 17.3984 30.3411 17.6612C28.8937 20.3588 26.9046 22.5202 24.3737 24.1453C21.8428 25.7704 19.0507 26.583 15.9976 26.583Z" fill="#0070CC"/>
</g>
</svg>
