<svg width="50" height="40" viewBox="0 0 50 40" fill="none" xmlns="http://www.w3.org/2000/svg">
<g id="icon">
<path id="lock" d="M17.1921 33C16.3325 33 15.6142 32.71 15.0373 32.13C14.4603 31.5499 14.1719 30.8303 14.1719 29.9711V17.8555C14.1719 16.9962 14.4619 16.2766 15.0419 15.6966C15.6172 15.1213 16.3297 14.8313 17.1796 14.8266C17.1867 14.8266 18.1937 14.8265 18.2008 14.8265V11.8595C18.2008 9.9498 18.8645 8.32882 20.1918 6.99651C21.519 5.6642 23.1242 4.99805 25.0075 4.99805C26.8906 4.99805 28.4934 5.6642 29.816 6.99651C31.1387 8.32882 31.8 9.9498 31.8 11.8595V14.8265C31.8068 14.8265 32.8136 14.8266 32.8204 14.8266C33.6706 14.8312 34.3834 15.1212 34.9588 15.6966C35.5389 16.2766 35.8289 16.9962 35.8289 17.8555V29.9711C35.8289 30.8303 35.5388 31.5499 34.9585 32.13C34.3783 32.71 33.6584 33 32.7987 33H17.1921ZM25.0118 26.6331C25.746 26.6331 26.3706 26.3717 26.8857 25.849C27.4008 25.3263 27.6584 24.6978 27.6584 23.9637C27.6584 23.2295 27.397 22.6049 26.8743 22.0897C26.3515 21.5746 25.7231 21.3171 24.9889 21.3171C24.2548 21.3171 23.6302 21.5784 23.115 22.1012C22.5999 22.6239 22.3424 23.2524 22.3424 23.9865C22.3424 24.7207 22.6037 25.3453 23.1265 25.8604C23.6492 26.3756 24.2777 26.6331 25.0118 26.6331ZM21.2297 14.8265H28.7711V11.8595C28.7711 10.8086 28.4041 9.90715 27.6701 9.15507C26.9362 8.40299 26.045 8.02696 24.9967 8.02696C23.9483 8.02696 23.0584 8.40299 22.3269 9.15507C21.5954 9.90715 21.2297 10.8086 21.2297 11.8595V14.8265Z" fill="white" fill-opacity="0.5"/>
</g>
</svg>
