<svg width="28" height="28" viewBox="0 0 28 28" fill="none" xmlns="http://www.w3.org/2000/svg">
<g id="check">
<path id="check_2" d="M11.154 20.8404C10.9438 20.8404 10.7385 20.8042 10.5381 20.7318C10.3377 20.6595 10.1567 20.5438 9.99512 20.3849L4.77939 15.4055C4.46643 15.1018 4.31486 14.7256 4.32467 14.2768C4.33447 13.8281 4.49585 13.4541 4.80881 13.1549C5.12647 12.8512 5.51747 12.6994 5.9818 12.6994C6.44613 12.6994 6.83477 12.8512 7.14773 13.1549L11.154 16.9848L20.9491 7.61427C21.2667 7.31508 21.6603 7.16437 22.1297 7.16213C22.5992 7.15988 22.9927 7.3106 23.3104 7.61427C23.628 7.91793 23.7869 8.29527 23.7869 8.7463C23.7869 9.19731 23.628 9.57242 23.3104 9.87161L12.3129 20.3849C12.1513 20.5438 11.9703 20.6595 11.7699 20.7318C11.5695 20.8042 11.3642 20.8404 11.154 20.8404Z" fill="white"/>
</g>
</svg>
