<svg width="32" height="20" viewBox="0 0 32 20" fill="none" xmlns="http://www.w3.org/2000/svg">
<g id="hotel">
<path id="hotel_2" d="M2.48628 19.8331C2.14008 19.8331 1.84748 19.7153 1.60849 19.4797C1.3695 19.2441 1.25 18.9522 1.25 18.604V1.39646C1.25 1.04822 1.36711 0.756305 1.60132 0.520726C1.83553 0.285147 2.12574 0.167358 2.47194 0.167358C2.81814 0.167358 3.11073 0.285147 3.34972 0.520726C3.58872 0.756305 3.70821 1.04822 3.70821 1.39646V13.2778H14.3605V4.26438C14.3605 3.58837 14.6012 3.00967 15.0826 2.52827C15.564 2.04687 16.1427 1.80617 16.8187 1.80617H25.8321C27.1978 1.80617 28.3586 2.28415 29.3146 3.24012C30.2706 4.1961 30.7486 5.35692 30.7486 6.72259V18.604C30.7486 18.9522 30.6315 19.2441 30.3972 19.4797C30.163 19.7153 29.8728 19.8331 29.5266 19.8331C29.1804 19.8331 28.8878 19.7153 28.6488 19.4797C28.4098 19.2441 28.2903 18.9522 28.2903 18.604V15.736H3.70821V18.604C3.70821 18.9522 3.59111 19.2441 3.35689 19.4797C3.12268 19.7153 2.83247 19.8331 2.48628 19.8331ZM9.03434 11.639C7.89628 11.639 6.92893 11.2407 6.13228 10.4441C5.33564 9.64741 4.93732 8.68006 4.93732 7.542C4.93732 6.40394 5.33564 5.43658 6.13228 4.63994C6.92893 3.8433 7.89628 3.44498 9.03434 3.44498C10.1724 3.44498 11.1398 3.8433 11.9364 4.63994C12.733 5.43658 13.1314 6.40394 13.1314 7.542C13.1314 8.68006 12.733 9.64741 11.9364 10.4441C11.1398 11.2407 10.1724 11.639 9.03434 11.639Z" fill="white"/>
</g>
</svg>
