<svg width="18" height="18" viewBox="0 0 18 18" fill="none" xmlns="http://www.w3.org/2000/svg">
<g id="icon" clip-path="url(#clip0_981_567)">
<path id="Vector" fill-rule="evenodd" clip-rule="evenodd" d="M0.508806 15.2543C0.84801 15.5848 1.64853 15.75 1.73211 15.75H16.2679C16.7442 15.75 17.152 15.5848 17.4912 15.2543C17.8304 14.9238 18 14.5266 18 14.0625V11.5719C17.9866 11.4203 17.9286 11.2873 17.8259 11.173C17.7078 11.0415 17.556 10.9593 17.3704 10.9264C16.9655 10.795 16.6324 10.5567 16.3709 10.2115C16.1094 9.86638 15.9787 9.48015 15.9787 9.05284C15.9787 8.62552 16.1094 8.2393 16.3709 7.89416C16.6324 7.54902 16.9655 7.31071 17.3704 7.17923C17.556 7.14636 17.7078 7.06419 17.8259 6.93271C17.9286 6.81836 17.9866 6.68538 18 6.53375V3.9375C18 3.47344 17.8304 3.07617 17.4912 2.7457C17.152 2.41523 16.7442 2.25 16.2679 2.25H1.73211C1.64853 2.25 0.84801 2.41523 0.508806 2.7457C0.169602 3.07617 0 3.47344 0 3.9375V6.55938C0.0174077 6.70041 0.0745443 6.82485 0.17141 6.93271C0.289497 7.06419 0.441322 7.14636 0.626887 7.17923C1.03176 7.31071 1.36493 7.54902 1.62641 7.89416C1.88789 8.2393 2.01862 8.62552 2.01862 9.05284C2.01862 9.48015 1.88789 9.86637 1.62641 10.2115C1.36493 10.5567 1.03176 10.795 0.626887 10.9264C0.441322 10.9593 0.289497 11.0415 0.17141 11.173C0.0745443 11.2808 0.0174077 11.4053 0 11.5463V14.0625C0 14.5266 0.169602 14.9238 0.508806 15.2543ZM9.00724 10.9264L10.5255 12.0605C10.7111 12.2084 10.9135 12.2125 11.1328 12.0728C11.3521 11.9331 11.4196 11.7482 11.3352 11.5181L10.7279 9.6445L12.4233 8.36256C12.6089 8.21465 12.6595 8.02975 12.5751 7.80788C12.4908 7.586 12.3305 7.47507 12.0944 7.47507H10.1206L9.48802 5.57681C9.40367 5.34672 9.24341 5.23167 9.00724 5.23167C8.77106 5.23167 8.6108 5.34672 8.52646 5.57681L7.89385 7.47507H5.89481C5.65863 7.47507 5.50259 7.586 5.42668 7.80788C5.35076 8.02975 5.40559 8.21465 5.59115 8.36256L7.23594 9.6445L6.62863 11.5428C6.54428 11.7728 6.60333 11.9577 6.80576 12.0974C7.0082 12.2371 7.21063 12.233 7.41307 12.0851L9.00724 10.9264Z" fill="#1A1A1A" fill-opacity="0.6"/>
</g>
<defs>
<clipPath id="clip0_981_567">
<rect width="18" height="18" fill="white"/>
</clipPath>
</defs>
</svg>
