<svg width="42" height="42" viewBox="0 0 42 42" fill="none" xmlns="http://www.w3.org/2000/svg">
<g id="arrow">
<path id="arrow_back_ios_new" d="M25.9973 20.9975L13.8115 32.4766C13.2855 32.9791 13.0152 33.609 13.0006 34.3664C12.9859 35.124 13.2451 35.7539 13.7781 36.2562C14.3038 36.7521 14.9684 37 15.772 37C16.5752 37 17.2434 36.7521 17.7764 36.2562L30.6756 24.0631C31.143 23.6161 31.4805 23.1344 31.6881 22.6181C31.896 22.1018 32 21.5616 32 20.9975C32 20.4268 31.896 19.8833 31.6881 19.367C31.4805 18.8507 31.143 18.3723 30.6756 17.932L17.7764 5.77034C17.2434 5.27446 16.5826 5.01796 15.7939 5.00085C15.005 4.98373 14.3442 5.22642 13.8115 5.72893C13.2855 6.22453 13.0225 6.85446 13.0225 7.61871C13.0225 8.38269 13.2855 9.01261 13.8115 9.50849L25.9973 20.9975Z" fill="#0070CC"/>
</g>
</svg>
