<svg width="20" height="20" viewBox="0 0 20 20" fill="none" xmlns="http://www.w3.org/2000/svg">
<g id="icon_expand">
<path id="Vector" d="M9.99008 15C9.82445 15 9.65911 14.9646 9.49406 14.8936C9.32843 14.8227 9.17472 14.7282 9.03292 14.6101L2.19077 7.72724C1.93099 7.49111 1.80706 7.17779 1.81897 6.78727C1.83088 6.39733 1.96672 6.084 2.2265 5.84731C2.48628 5.5635 2.79938 5.43352 3.16579 5.45736C3.5322 5.48063 3.8453 5.61062 4.10507 5.84731L9.99008 11.7366L15.8751 5.84731C16.1349 5.61062 16.4596 5.48659 16.8492 5.47524C17.2395 5.46332 17.5529 5.58734 17.7894 5.84731C18.073 6.10728 18.2029 6.42656 18.1791 6.80515C18.1552 7.18375 18.0134 7.50303 17.7536 7.763L10.9472 14.6101C10.8054 14.7282 10.6517 14.8227 10.4861 14.8936C10.321 14.9646 10.1557 15 9.99008 15Z" fill="#0070CC"/>
</g>
</svg>
